<svg xmlns="http://www.w3.org/2000/svg" viewBox="0 0 32 32"><g fill="#FFF"><path d="M12.5 29.2s.8 1.5 3.1 1.5 4.4-1.3 4.4-1.3l-2-11.6h-3.2l-2.3 11.4z"/><path d="M3.1 19.2s-1 1.3-.1 3.4S6 26 6 26l9.7-6.6-1.3-2.9-11.3 2.7z"/><path d="M6.5 6.3s-1.7-.1-2.9 1.8-1.2 4.4-1.2 4.4l10.9 4.4 1.7-2.7-8.5-7.9z"/><path d="M19.9 3.2s-.7-1.5-3-1.7-4.4 1-4.4 1l1.3 11.7 3.2.2 2.9-11.2z"/><path d="M29.2 12.4s1-1.4-.1-3.4S26 5.7 26 5.7l-9.4 7.1 1.5 2.8 11.1-3.2zm-3.6 13.4s1.7 0 2.8-1.9 1-4.3 1-4.3L18.5 16 17 18.7l8.6 7.1z"/></g><g transform="translate(6.307 -579.096) scale(.5857)"><circle transform="matrix(1 -.00725 .00725 1 -7.362 .146)" cx="16.5" cy="1016" r="15" fill="#fff"/><path d="M9.8 993.2c-4 .2-7.9 2.4-10.1 5.9-.3.5.4.9.7 1.2l13.4 13.4c.5.3.9-.2 1.3-.4s.3-.7.2-1.1l-5-18.7c0-.2-.2-.3-.5-.3zm12.9 0c-.6.1-.5.8-.7 1.2l-4.9 18.4c0 .6.6.7 1 1 .5.3.9-.3 1.2-.6l13.5-13.5c.4-.5-.2-.9-.4-1.3-2.3-3.2-5.8-5.1-9.7-5.2zm16.6 17l-19.2 5.1c-.5.2-.3.9-.3 1.4 0 .6.6.6 1 .7l18.5 4.9c.6.1.8-.6 1-1 1.4-3.3 1.4-7-.1-10.2-.2-.4-.3-1-.9-.9zm-20.5 8c-.4.3-1.2.5-1.1 1.1l3.9 14.6 1.2 4.6c.2.5.9.3 1.3.3 2.6-.3 5.1-1.4 7-3.1.9-.8 1.7-1.7 2.3-2.8.2-.5-.5-.8-.7-1.1l-13.4-13.4c-.1-.3-.3-.3-.5-.2zm-4.9 0l-14.7 14.1c-.4.5.2.9.4 1.3 2 2.6 5 4.4 8.3 5 .7.1 1.4.3 2 .1.4-.4.3-.9.5-1.4l5-18c.1-.6-.7-.8-1-1 0-.2-.3-.2-.5-.1zm-.7-3l-19.3-5c-.6-.1-.7.6-.9 1-1.3 3-1.4 6.4-.2 9.4.3.6.5 1.3.9 1.8.5.1 1-.2 1.5-.3l18-5c.5-.2.3-.9.4-1.4-.1-.2-.2-.4-.4-.5" fill="{fillColor}"/><path stroke="{strokeColor}" d="M22.7 1039.2c-3.8 2.2-8.6 2.2-12.4 0m0 0c-4.4 0-8.5-2.4-10.7-6.2m0 0c-3.8-2.2-6.2-6.3-6.2-10.7m0-.1c-2.2-3.8-2.2-8.6 0-12.4m46.3 12.4c0 4.4-2.4 8.5-6.2 10.7m0 .1c-2.2 3.8-6.3 6.2-10.7 6.2m10.7-40.1c3.8 2.2 6.2 6.3 6.2 10.7m0 0c2.2 3.8 2.2 8.6 0 12.4m-29.4-29.3c3.8-2.2 8.6-2.2 12.4 0m0 0c4.4 0 8.5 2.4 10.7 6.2m-40 10.7c0-4.4 2.4-8.5 6.2-10.7m0 0c2.2-3.8 6.3-6.2 10.7-6.2m-10.7 6.2l33.9 33.9m6.2-23.2l-46.3 12.4m29.3-29.3l-12.4 46.3m-16.9-29.4l46.3 12.4M-.4 1033l33.9-33.9m-23.2-6.2l12.4 46.3" fill="none" stroke-miterlimit="2.343"/><circle cx="16.8" cy="1015.8" r="5.1" fill="{fillColor}"/></g></svg>