<svg xmlns="http://www.w3.org/2000/svg" viewBox="0 0 32 32"><path d="M15.99 23.915l.07-.41.07.2 2.64-.2v-.74c-.02-.04-2.57-.47-2.57-.47l.14-2.84c.06-.41.07-2.57.07-3.25-.01-.68.88-.54.88-.54l8.39-.81 6.28-.88s.01-.9-.2-.95c-.21-.04-15.09-.07-15.09-.07s-.14-3.32-.27-3.79-.33-1.03-.41-1.08c-.08.05-.26.62-.39 1.08-.13.47-.27 3.79-.27 3.79l-15.09.07c-.21.04-.2.95-.2.95l6.29.88 8.39.81s.89-.13.88.54c-.01.68.01 2.84.07 3.25s.14 2.84.14 2.84l-2.57.47c-.02.04 0 .74 0 .74l2.64.2.07-.2.07.41" fill-rule="evenodd" fill="{fillColor}" stroke="{strokeColor}" stroke-width=".3" /></svg>