<svg xmlns="http://www.w3.org/2000/svg" viewBox="0 0 32 32"><path fill="{fillColor}" stroke="{strokeColor}" stroke-width=".3" d="M16.3 25v-1.8h.2c.1 0 .2-.2.2-.2s0-.8.1-1.1c0-.3-.4-.2-.4-.2l.1-2.1.3-.3c.2-.3.7-1.1 1-2.1.3-1.1.2-2.8.2-2.8h.3v.5h.4V6.7s0-.1-.1-.1c-.2 0-.2.1-.2.1v1.5h-.5V5.9c-.2-1.8-2-1.8-2-1.8h-.3s-.6 0-.9.2c-.7.3-.9.6-1.1 1.3s-.1 2.6-.1 2.6H13V6.7s0-.1-.1-.1-.2.1-.2.1l.1 8.2h.4v-.3h.3s0 .2.2 2 1.3 3 1.3 3l.1 2.2H15c-.1 0-.2.2-.2.2v1.1c0 .2.3.2.3.2l.1 1.8h-2.9l-.2 2.1.1.1.1-.7h3s.3 5 .4 5.2c.1.2.4.1.5-.1.1-.1.2-1 .2-1v-3.1c0-.3-.1-.5-.1-.5v-.4H19l-.1.6.2.1.3-2.1-3.1-.3zm1.9-16.3v5.2h-.3V8.7h.3zM13.1 14L13 8.8h.3V14h-.2z" fill-rule="evenodd" clip-rule="evenodd" /><circle fill="{fillColor}" stroke="{strokeColor}" stroke-width=".4" cx="15.5" cy="1025.3" fill-opacity=".392" stroke-linejoin="round" r="12.4" transform="matrix(1 0 0 1.00503 .001 -1017.752)" /></svg>