<svg xmlns="http://www.w3.org/2000/svg" stroke="{strokeColor}" stroke-width=".4" viewBox="0 0 32 32"><path fill="{fillColor}" d="M16.23 27.83s.05-.55.14-.87c.09-.32.07-.44.07-.44l5.39 1.73s0-.31-.01-1.25-.3-1.03-.3-1.03l-4.44-2.77s.14-.45.14-.66c.01-.21-.15-.15-.15-.15s-.01-.05.36-1.92c.36-1.87.64-3.03.64-3.03l.51-.3 13.41-.46s.14-3.05-.98-3.16c-1.12-.12-12.68-1.24-12.68-1.24s-.29-5.21-1.45-7.65c-.42-.89-.82-.88-.82-.88h-.13s-.39-.01-.82.88c-1.16 2.44-1.45 7.65-1.45 7.65S2.1 13.4.99 13.52c-1.12.12-.98 3.16-.98 3.16l13.41.46.51.3s.28 1.15.64 3.03c.36 1.87.36 1.92.36 1.92s-.16-.06-.15.15c.01.21.14.66.14.66l-4.44 2.77s-.29.09-.3 1.03c-.01.94-.01 1.25-.01 1.25l5.39-1.73s-.02.12.07.44c.09.32.14.87.14.87z" fill-rule="evenodd" clip-rule="evenodd" /></svg>