<svg xmlns="http://www.w3.org/2000/svg" stroke="{strokeColor}" stroke-width=".5" viewBox="0 0 32 32"><g fill="{fillColor}"><path d="M15.21 3.925c-.37 0-.74.82-.74.82s0-.55.01-.83c0-.28.83-.54.83-.54l.07-.03m1.41.58c.37 0 .74.82.74.82s0-.55-.01-.83c0-.28-.83-.54-.83-.54l-.07-.03" /><path d="M16.14 1.995c-.01-.06-.06-.12-.12-.13-.06 0-.13.03-.15.09 0 .01-.01.02-.01.04v-.01s-.22.54-.51 1.49c-.18.56-.38 1.27-.59 2.1-.56 2.2-.56 3.3-.56 3.3v2.48l-.28.28s-13.24.55-13.1.41c.15.14-.82 1.66-.82 1.66v.83l.69-.41 13.24 1.38v1.1s0 .28.28.83c.28.55.28 6.07 1.1 8v.83l-3.58.55-.28.28c-.44.44-.55.83-.55.83v.83h4.69l.28 1.38h.15-.01.15l.28-1.38h4.69v-.83s-.12-.39-.55-.83l-.28-.28-3.58-.55v-.83c.83-1.93.83-7.45 1.1-8 .28-.55.28-.83.28-.83v-1.1l13.24-1.38.66.41v-.83s-.95-1.52-.83-1.65c.12-.13-13.1-.41-13.1-.41l-.28-.28v-2.49s0-1.1-.55-3.31c-.21-.82-.41-1.53-.59-2.1-.3-.95-.51-1.49-.51-1.49z" /><path d="M13.1 2.535l2.73.11 3.02-.11-2.72-.28h-.22z" /></g></svg>