<svg xmlns="http://www.w3.org/2000/svg" stroke="{strokeColor}" stroke-width=".4" viewBox="0 0 32 32">    <path fill="{fillColor}" d="M16.005.025c-.14.04-.54.36-1.14 1.43-.6 1.06-.71 2.85-.71 2.85v6.35s-.09.12-.14.36c-.06.24-.21.36-.21.36l-2.07 1.07s-.06.1 0-.07.07-.5.07-.5.02-1.53 0-1.85c-.02-.33-.36-.43-.36-.43s-.57-.01-1 0c-.43.01-.5.57-.5.57s-.02 1.43 0 1.93.36.64.36.64l-.07.5s-2.48 1.16-4.77 2.35c-2.23 1.15-4.28 2.33-4.35 2.43-.14.17-.21 1.77-.21 1.77s.16.17.21-.14c.06-.31.07-.5.07-.5l3.92-1.28s.12.72.21.71c.19-.02.21-.86.21-.86l2.92-.86s.03.71.21.71c.14 0 .21-.78.21-.78l1.35-.43h.36s.01.57.14.57.14-.57.14-.57h.43s.05.71.21.71c.17.01.21-.71.21-.71h2.28v6.85s.11 2.44.29 3.35c.18.91.01 1.25-.21 1.43-.23.17-3.85 2.71-3.85 2.71s-.31.21-.28.57c.03.37 0 .71 0 .71l5.45-1.4s.3.96.62.96.66-.96.66-.96l5.41 1.4s-.03-.35 0-.71c.03-.37-.28-.57-.28-.57s-3.62-2.54-3.85-2.71c-.23-.17-.39-.52-.21-1.43.18-.91.28-3.35.28-3.35v-6.85h2.28s.05.72.21.71c.17-.01.21-.71.21-.71h.43s.01.57.14.57.14-.57.14-.57h.36l1.35.43s.07.79.21.78c.18-.01.21-.71.21-.71l2.92.86s.02.83.21.86c.09.01.21-.71.21-.71l3.92 1.28s.01.19.07.5c.06.31.21.14.21.14s-.07-1.6-.21-1.78c-.07-.09-2.12-1.27-4.35-2.43-2.3-1.19-4.77-2.35-4.77-2.35l-.07-.5s.34-.14.36-.64c.02-.5 0-1.93 0-1.93s-.07-.56-.5-.57c-.43-.01-1 0-1 0s-.34.1-.36.43c-.02.33 0 1.85 0 1.85s.01.33.07.5c.06.17 0 .07 0 .07l-2.07-1.07s-.16-.12-.21-.36c-.06-.24-.14-.36-.14-.36v-6.34s-.12-1.79-.71-2.85c-.6-1.06-1-1.39-1.14-1.43" fill-rule="evenodd" clip-rule="evenodd" /></svg>