<svg xmlns="http://www.w3.org/2000/svg" stroke="{strokeColor}" stroke-width=".4" viewBox="0 0 32 32"><g fill="{fillColor}"><path d="M16.02 25.7l3.71-.06v-.27l-.53-.8-2.88-.86.23-5.24s.27-.8.53-1.59c.27-.8.27-1.33.27-1.33h2.12l.21.8h.85l.27-.8L30.93 15l.44.59s.03-.3 0-.59-.23-.51-.23-.51v-1.33c0-.27-.27-.27-.27-.27s-7.42-.27-8.75-.27h-1.33s.27-1.33 0-1.86-.53-.53-.53-.53v-.21s0-.05-.01-.13c-.02-.17-.07-.43-.26-.43-.27 0-.27.8-.27.8s-.27 0-.53.27c-.27.27-.27 1.59-.27 1.59l-1.59-.27s0-1.59-.27-2.92c-.27-1.33-.77-2.65-1.04-2.65H16c-.27 0-.8 1.33-1.06 2.65-.27 1.33-.27 2.92-.27 2.92l-1.59.27s0-1.33-.27-1.59c-.27-.27-.53-.27-.53-.27s0-.8-.27-.8c-.17 0-.23.22-.25.39 0 .02 0 .03-.01.04-.01.08-.01.13-.01.13v.23s-.27 0-.53.53c-.27.53 0 1.86 0 1.86H9.88c-1.33 0-8.75.27-8.75.27s-.27 0-.27.27v1.33s-.2.22-.23.51c-.03.29 0 .59 0 .59l.44-.59 10.13.55.27.8h.85l.21-.8h2.12s0 .53.27 1.33.53 1.59.53 1.59l.23 5.24-2.88.86-.53.8v.27l3.71.06h.04z" /><path d="M12.03 10.13l-2.54-.09 2.29-.19z" /><path d="M12.03 10.13l-2.54-.09 2.29-.19z" /><path d="M11.87 10.13l2.55-.09-2.3-.19zm8.38 0l-2.55-.09 2.3-.19z" /><path d="M19.82 10.13l2.55-.09-2.29-.19z" /></g></svg>