<svg xmlns="http://www.w3.org/2000/svg" stroke="{strokeColor}" stroke-width=".5" viewBox="0 0 32 32"><g fill="{fillColor}"><path d="M16.1 32.025l.2-.8h3.6v-1.4l-3.3-.4s.3-2.2.7-5.4c.4-3.2.1-7.7.1-7.7h2.4s.1 1.3.2 1.6c.1.3.3.5.3.5s.4-.6.4-1.3c0-.5.1-1 .1-1s1.9-.2 1.9-.1.2.2.2.1v-.2l2.3-.2s0 .1.1.1.1-.2.1-.2l4-.3s0-1-.1-1-8.6-.8-8.6-.8v-2.1s-.1-.9-.3-1.1c-.2-.2-.2-.1-.2-.1-.1.1-.3.7-.3 1.1 0 .4-.1 2.1-.1 2.1l-2.2-.1s-.2 0-.2-.1v-9.1s0-1.4-.2-2c-.2-.6-.7-1.8-.9-2-.2-.2-.4-.2-.6 0-.2.2-.6 1.4-.9 2-.2.6-.2 2-.2 2v9.1c0 .1-.2.1-.2.1l-2.2.1s-.1-1.7-.1-2.1c0-.4-.2-1-.3-1.1-.1-.1-.1-.1-.2.1s-.3 1.1-.3 1.1v2.1s-8.5.8-8.6.8c-.1.1-.1 1-.1 1l4 .3s0 .2.1.2.1-.1.1-.1l2.4.2v.2c0 .1.2 0 .2-.1s1.9.1 1.9.1 0 .5.1 1c0 .8.4 1.3.4 1.3s.2-.2.3-.5c.1-.3.2-1.6.2-1.6h2.4s-.3 4.5.1 7.7.7 5.4.7 5.4l-3.3.4v1.4h3.7l.2.8" fill-rule="evenodd" clip-rule="evenodd" /><path d="M11.5 11.225l2.9-.1-2.5-.2h-.3l-2.5.2zm8.7 0l2.8-.1-2.4-.2h-.4l-2.5.2z" /></g></svg>