<svg xmlns="http://www.w3.org/2000/svg" stroke="{strokeColor}" stroke-width=".4" viewBox="0 0 32 32"><path fill="{fillColor}" d="M16.085.555c.07-.01.28.14.28.14s.16.18.42.56c.67 1 .83 4.38.83 4.38s-.01 6.73 0 7.16c.01.43.28.7.28.7l1.88 1.46v-.28s-.09-.04-.14-.07c-.13-.07-.09-.18-.14-.21-.05-.03 0-1.43.07-1.53.07-.1 1.1-.15 1.25 0 .15.15.09 1.38.07 1.6-.02.22-.21.21-.21.21s-.02.01 0 .21c.02.2 0 .77 0 .77l7.79 6.19-.07.42s.12.15.28.49c.16.34.07.83.07.83l-.35-.42-7.65-3.55-3.13-.49s.04 2.96 0 3.55c-.04.59-.19 1.93-.35 2.71-.16.78-.14.83-.14.83l3.13 2.58v1.46l-3.55-1.18s.05.63-.07.77c-.12.13-.2.89-.35.97-.15.09-.14.07-.14.07l-.07.56h-.15l-.07-.56s.01.02-.14-.07c-.15-.09-.23-.84-.35-.97-.12-.13-.07-.77-.07-.77l-3.55 1.18v-1.46l3.13-2.57s.02-.05-.14-.83c-.16-.78-.31-2.13-.35-2.71-.04-.59 0-3.55 0-3.55l-3.13.49-7.65 3.55-.35.42s-.09-.5.07-.83c.16-.33.28-.49.28-.49l-.05-.43 7.79-6.19s-.02-.57 0-.77c.02-.2 0-.21 0-.21s-.19.02-.21-.21c-.02-.22-.08-1.45.07-1.6.15-.15 1.18-.1 1.25 0 .07.1.12 1.5.07 1.53-.05.03-.01.14-.14.21-.05.03-.13.07-.13.07v.28l1.88-1.46s.27-.26.28-.7c.01-.43 0-7.16 0-7.16s.16-3.38.83-4.38c.25-.38.42-.56.42-.56s.2-.15.27-.14z" fill-rule="evenodd" clip-rule="evenodd" /></svg>