<svg xmlns="http://www.w3.org/2000/svg" stroke="{strokeColor}" stroke-width=".4" viewBox="0 0 32 32"><path fill="{fillColor}" d="M15.97 28.696s.17.22.32.16.32-.8.32-.8 4.35 1.94 4.62 2.07c.27.13.16 0 .16 0s.07-.99.08-1.28c.01-.29-.08-.4-.08-.4L17 25.256l.72-.88s-.03.04.4 0c.43-.04.42-.43.56-.8.14-.36.16-1.2.16-1.2s.09-1.68 0-1.91c-.09-.23-1.2-.08-1.2-.08s.02-.03.08-.4.08-1.44.08-1.44l3.75.72 1.36.48 1.83.8 1.04.48 5.74 2.39.48.49s-.12-.74-.32-1.12c-.19-.38-.54-.75-.72-.96-.18-.21-4.62-3.03-4.62-3.03l-4.62-2.87-4.07-3.43-.16-4.86s-.27-3.33-.72-4.39c-.45-1.06-.72-1.36-.72-1.36s-.04-.08-.08-.08h.05c-.04 0-.08.08-.08.08s-.27.3-.72 1.36c-.45 1.06-.72 4.39-.72 4.39l-.16 4.86-4.07 3.43-4.61 2.88s-4.45 2.82-4.62 3.03c-.18.21-.52.58-.72.96-.2.37-.32 1.11-.32 1.11l.48-.48 5.74-2.39 1.04-.48 1.83-.8 1.36-.48 3.75-.72s.02 1.07.08 1.44c.06.37.08.4.08.4s-1.1-.15-1.2.08c-.09.23 0 1.91 0 1.91s.02.83.16 1.2c.14.36.13.76.56.8.43.04.4 0 .4 0l.72.88-4.39 3.19s-.09.11-.08.4c.01.29.08 1.28.08 1.28s-.11.13.16 0 4.62-2.07 4.62-2.07.17.73.32.8c.15.06.32-.16.32-.16" fill-rule="evenodd" clip-rule="evenodd" /></svg>