<svg xmlns="http://www.w3.org/2000/svg" stroke="{strokeColor}" stroke-width=".4" viewBox="0 0 32 32"><path fill="{fillColor}" d="M15.99 31.39c.09-.01.21-.62.21-.62l5.73.48s.07-.75.07-1.1c0-.35-.62-.55-.62-.55l-4.83-2.21s-.08.08.69-2.83c.92-3.5.76-8.77.76-8.77l2.42.35s.01.75.14.76c.13.01.21-.76.21-.76l2.35.28s.04.83.14.83.14-.76.14-.76l2.42.28s.03.75.14.76c.11.01.21-.69.21-.69l3.83.47v-1.45s.01-.23-.35-.35c-.34-.11-6.01-2-6.01-2v-.28s.27-.02.28-.35c.01-.32 0-1.79 0-1.79s-.12-.41-.55-.41h-.55s-.32.11-.35.55c-.02.44 0 1.45 0 1.45s-.01.36.07.41c.08.05-1.66-.55-1.66-.55v-.28s.28-.03.28-.28v-1.73s-.04-.48-.41-.48h-.76s-.28.08-.28.48c.01.4 0 1.73 0 1.73s.01.06.07.14c.06.08.07.07.07.07l-1.86-.55V7.09s-.62-4.25-1.24-5.38c-.43-.78-.69-1.1-.76-1.1h.03c-.07 0-.33.32-.76 1.1-.62 1.14-1.24 5.38-1.24 5.38v4.56l-1.86.55s.01.01.07-.07c.06-.08.07-.14.07-.14s-.01-1.32 0-1.73c.01-.41-.28-.48-.28-.48s-.38-.01-.76 0-.41.48-.41.48v1.73c0 .25.28.28.28.28v.28s-1.74.61-1.66.55c.08-.05.07-.41.07-.41s.02-1.01 0-1.45c-.02-.44-.35-.55-.35-.55s-.12-.01-.55 0c-.43.01-.55.41-.55.41s-.01 1.47 0 1.79c.01.32.28.35.28.35v.28s-5.67 1.9-6.01 2c-.37.1-.36.34-.36.34v1.45l3.87-.48s.1.7.21.69c.11-.01.14-.76.14-.76l2.42-.28s.04.76.14.76.14-.83.14-.83l2.35-.28s.07.76.21.76c.14 0 .14-.76.14-.76l2.42-.35s-.16 5.27.76 8.77c.77 2.91.69 2.83.69 2.83l-4.83 2.21s-.62.2-.62.55c0 .35.07 1.1.07 1.1l5.73-.48s.12.61.21.62" fill-rule="evenodd" clip-rule="evenodd" /></svg>