<svg xmlns="http://www.w3.org/2000/svg" stroke="{strokeColor}" stroke-width=".4" viewBox="0 0 32 32"><path fill="{fillColor}" d="M16.045 31.405c.14-.01.33-1.37.33-1.37l4.45 1.24v-.92c0-.27-.07-.26-.07-.26s-2.36-2.22-3.07-2.88c-.71-.66-.59-.78-.59-.78s-.02.07.07-.65c.09-.72.26-3.07.26-3.07l.07-6.54.85.26s.05.73.2.72c.14-.01.13-.59.13-.59l.98.33s-.01.52.13.52c.18 0 .13-.46.13-.46l1.83.59.46.26s.08.63.2.65c.13.02.13-.46.13-.46l1.37.78s-.06.65.13.65.13-.52.13-.52l4.19 2.49s1.27.89 1.44 1.05c.17.15.46.78.46.78s.08-.63 0-.98-.33-.78-.33-.78v-.92l-4.38-3.6v-.78s.17.03.2-.46 0-.78 0-.78-.02-.24-.33-.26c-.3-.02-.65 0-.65 0s-.33.01-.33.33v.65s-.01.19.07.33c.07.14-2.81-2.49-2.81-2.49v-.92s.21-.01.2-.65c-.02-.65-.07-.78-.39-.78h-.65s-.25.06-.26.33c-.01.26 0 .78 0 .78s.03.19.07.26c.03.07-3.14-2.81-3.14-2.81v-4.06s-.41-5.03-1.5-5.04h-.05c-1.09 0-1.5 5.04-1.5 5.04v4.05s-3.17 2.89-3.14 2.81c.03-.07.07-.26.07-.26s.01-.52 0-.78-.26-.33-.26-.33h-.65c-.32 0-.38.14-.39.78-.02.65.2.65.2.65v.92s-2.89 2.62-2.81 2.49c.08-.13.07-.33.07-.33v-.65c0-.31-.33-.33-.33-.33s-.35-.02-.65 0c-.3.02-.33.26-.33.26s-.03.3 0 .78c.03.49.2.46.2.46v.78l-4.38 3.6v.92s-.24.44-.33.78c-.08.35 0 .98 0 .98s.29-.63.46-.78c.17-.15 1.44-1.05 1.44-1.05l4.19-2.49s-.06.53.13.52c.19 0 .13-.65.13-.65l1.37-.78s0 .48.13.46c.12-.02.2-.65.2-.65l.46-.26 1.83-.59s-.05.46.13.46c.14 0 .13-.52.13-.52l.98-.33s-.01.58.13.59c.15.01.2-.72.2-.72l.85-.26.07 6.54s.17 2.35.26 3.07c.09.72.07.65.07.65s.12.12-.59.78-3.07 2.88-3.07 2.88-.07 0-.07.26v.92l4.45-1.24s.19 1.37.33 1.37h.09z" fill-rule="evenodd" clip-rule="evenodd" /></svg>