<svg xmlns="http://www.w3.org/2000/svg" viewBox="0 0 32 32"><path d="M4.9 23.4c-2 0-3.7-1.8-3.7-4v-5.8c0-2.2 2.2-3.7 3.7-4 0 0 5.2-1 11.1-1a66.12 66.12 0 0111.1 1c1.5.3 3.7 1.8 3.7 4v5.8c0 2.2-1.6 4-3.7 4 0 0-7.4-1-11.1-1s-11.1 1-11.1 1z" fill="#fff"/><path d="M15.55 8.6l-3.9.2v13.8l3.9-.2zm.9 0v13.8l3.9.2V8.8zm-5.7.3l-3.9.4v13.8l3.9-.4zm10.4 0v13.9l3.9.4V9.3zm-15.2.5l-1 .2c-1.5.3-3.7 1.8-3.7 4v5.8c0 2.2 1.6 4 3.7 4l1.1-.1V9.4zm20 .1v13.8l1.1.1c2 0 3.7-1.8 3.7-4v-5.8c0-2.2-2.2-3.7-3.7-4z" fill="{fillColor}"/><path d="M4.9 23.4c-2 0-3.7-1.8-3.7-4v-5.8c0-2.2 2.2-3.7 3.7-4 0 0 5.2-1 11.1-1a66.12 66.12 0 0111.1 1c1.5.3 3.7 1.8 3.7 4v5.8c0 2.2-1.6 4-3.7 4 0 0-7.4-1-11.1-1s-11.1 1-11.1 1z" fill="none" stroke="{fillColor}" stroke-width=".5" stroke-miterlimit="10"/><path d="M4.9 23.4c-2 0-3.7-1.8-3.7-4v-5.8c0-2.2 2.2-3.7 3.7-4 0 0 5.2-1 11.1-1a66.12 66.12 0 0111.1 1c1.5.3 3.7 1.8 3.7 4v5.8c0 2.2-1.6 4-3.7 4 0 0-7.4-1-11.1-1s-11.1 1-11.1 1z" fill="none" stroke="{strokeColor}" stroke-width=".5" stroke-miterlimit="10"/></svg>