<svg xmlns="http://www.w3.org/2000/svg" viewBox="0 0 32 32"><style type="text/css" id="style842">.prefix__prefix__prefix__st0{fill:none;stroke-width:2;stroke-linejoin:round}</style><g transform="translate(-.01 .939)"><path fill="{fillColor}" stroke="{strokeColor}" stroke-width=".5" d="M24.74 14.93a.924.924 0 00-.83.47l-4.65 7.87H4.82c-.51-.01-.94.4-.95.92 0 .17.04.34.13.48.17.29.48.47.82.46h4.66v.93h11.25v-1.61l4.79-8.12a.929.929 0 00-.31-1.28.94.94 0 00-.47-.12z" /><path stroke="{strokeColor}" d="M27.2 24.2L21.12 3.78" stroke-width="2.6" stroke-linecap="round" /><path stroke="{fillColor}" d="M27.2 24.2L21.12 3.78" stroke-width="2" stroke-linecap="round" /><circle class="prefix__prefix__prefix__st0" stroke="{strokeColor}" cx="4.82" cy="24.2" r="3.2" /><circle class="prefix__prefix__prefix__st0" stroke="{fillColor}" cx="4.82" cy="24.2" r="2.8" /><circle class="prefix__prefix__prefix__st0" stroke="{strokeColor}" cx="27.2" cy="24.2" r="3.2" /><circle class="prefix__prefix__prefix__st0" stroke="{fillColor}" cx="27.2" cy="24.2" r="2.8" /><g stroke-linecap="round" stroke="{fillColor}"><path d="M2.45 18.89c3.09 0 7.96 2.22 7.96 5.31" fill="{fillColor}" stroke-linejoin="round" /><path d="M15.12 4.78l12-2" /></g><ellipse transform="rotate(-8.922 26.035 2.92)" fill="{fillColor}" cx="26.03" cy="2.92" rx="1.92" ry=".75" id="prefix__prefix__prefix__ellipse862" /><ellipse transform="rotate(-8.922 15.849 4.806)" fill="{fillColor}" cx="15.84" cy="4.8" rx="1.92" ry=".75" id="prefix__prefix__prefix__ellipse864" /></g></svg>