<svg xmlns="http://www.w3.org/2000/svg" viewBox="0 0 32 32"><g transform="translate(-8.5 -1020.362)"><circle cx="24.5" cy="1036.362" r="15" fill="{fillColor}" stroke="{strokeColor}" stroke-width=".5"/><path d="M23.345 1039.942l1.162-1.163 2.41-2.41 1.163-1.162a3.485 3.485 0 004.294-4.294l-1.801 1.8c-.49.49-1.283.49-1.773 0l-.65-.65a1.253 1.253 0 010-1.773l1.8-1.8a3.485 3.485 0 00-4.294 4.293l-1.162 1.163-2.41 2.41-1.163 1.162a3.485 3.485 0 00-4.294 4.294l1.801-1.8c.49-.49 1.283-.49 1.773 0l.65.65c.49.49.49 1.283 0 1.773l-1.8 1.8a3.485 3.485 0 004.294-4.293z" fill="#fff"/></g></svg>